<?xml version="1.0" encoding="UTF-8"?>
<!-- Generator: Adobe Illustrator 24.1.1, SVG Export Plug-In . SVG Version: 6.00 Build 0)  -->
<svg version="1.1" id="Layer_1" xmlns="http://www.w3.org/2000/svg" xmlns:xlink="http://www.w3.org/1999/xlink" x="0px" y="0px" viewBox="0 0 512 512" style="enable-background:new 0 0 512 512;" xml:space="preserve">
<g id="XMLID_7_">
	<path id="XMLID_13_" style="fill:white" d="M328.8,0H183.2v48.5h146.4V0H328.8z M231.7,317.1h48.5V170.7h-48.5V317.1z M427.6,155.4l35-35   c-10.8-12.6-21.6-24.3-34.1-34.1l-35.9,35C354.8,91.6,307.2,73.7,256,73.7c-121.3,0-219.2,97.9-219.2,219.2S134.7,512,256,512   s219.2-97.9,219.2-219.2C475.2,240.7,457.2,193.1,427.6,155.4z M256,463.5c-94.3,0-170.7-76.4-170.7-170.7S161.7,122.2,256,122.2   s170.7,76.4,170.7,170.7S350.3,463.5,256,463.5z"/>
</g>
</svg>
